<mxfile host="65bd71144e">
    <diagram id="mQGIzSs11SzKSvenHAQc" name="Page-1">
        <mxGraphModel dx="527" dy="612" grid="1" gridSize="10" guides="1" tooltips="1" connect="1" arrows="1" fold="1" page="1" pageScale="1" pageWidth="850" pageHeight="1100" math="0" shadow="0">
            <root>
                <mxCell id="0"/>
                <mxCell id="1" parent="0"/>
                <mxCell id="2" value="«Componente»&lt;br&gt;Base de datos&amp;nbsp;" style="html=1;dropTarget=0;" vertex="1" parent="1">
                    <mxGeometry x="170" y="160" width="180" height="90" as="geometry"/>
                </mxCell>
                <mxCell id="3" value="" style="shape=module;jettyWidth=8;jettyHeight=4;" vertex="1" parent="2">
                    <mxGeometry x="1" width="20" height="20" relative="1" as="geometry">
                        <mxPoint x="-27" y="7" as="offset"/>
                    </mxGeometry>
                </mxCell>
                <mxCell id="4" value="«Componente»&lt;br&gt;Gestor de Usuarios" style="html=1;dropTarget=0;" vertex="1" parent="1">
                    <mxGeometry x="50" y="320" width="180" height="90" as="geometry"/>
                </mxCell>
                <mxCell id="5" value="" style="shape=module;jettyWidth=8;jettyHeight=4;" vertex="1" parent="4">
                    <mxGeometry x="1" width="20" height="20" relative="1" as="geometry">
                        <mxPoint x="-27" y="7" as="offset"/>
                    </mxGeometry>
                </mxCell>
                <mxCell id="6" value="«Componente»&lt;br&gt;Gestor de almacenamiento&amp;nbsp;" style="html=1;dropTarget=0;" vertex="1" parent="1">
                    <mxGeometry x="290" y="320" width="180" height="90" as="geometry"/>
                </mxCell>
                <mxCell id="7" value="" style="shape=module;jettyWidth=8;jettyHeight=4;" vertex="1" parent="6">
                    <mxGeometry x="1" width="20" height="20" relative="1" as="geometry">
                        <mxPoint x="-27" y="7" as="offset"/>
                    </mxGeometry>
                </mxCell>
                <mxCell id="8" value="«Componente»&lt;br&gt;Buscador" style="html=1;dropTarget=0;" vertex="1" parent="1">
                    <mxGeometry x="290" y="490" width="180" height="90" as="geometry"/>
                </mxCell>
                <mxCell id="9" value="" style="shape=module;jettyWidth=8;jettyHeight=4;" vertex="1" parent="8">
                    <mxGeometry x="1" width="20" height="20" relative="1" as="geometry">
                        <mxPoint x="-27" y="7" as="offset"/>
                    </mxGeometry>
                </mxCell>
                <mxCell id="10" value="«Componente»&lt;br&gt;Interfaz de usuario" style="html=1;dropTarget=0;" vertex="1" parent="1">
                    <mxGeometry x="50" y="490" width="180" height="90" as="geometry"/>
                </mxCell>
                <mxCell id="11" value="" style="shape=module;jettyWidth=8;jettyHeight=4;" vertex="1" parent="10">
                    <mxGeometry x="1" width="20" height="20" relative="1" as="geometry">
                        <mxPoint x="-27" y="7" as="offset"/>
                    </mxGeometry>
                </mxCell>
                <mxCell id="12" value="" style="rounded=0;orthogonalLoop=1;jettySize=auto;html=1;endArrow=none;endFill=0;sketch=0;sourcePerimeterSpacing=0;targetPerimeterSpacing=0;exitX=0;exitY=0.5;exitDx=0;exitDy=0;" edge="1" parent="1" source="8">
                    <mxGeometry relative="1" as="geometry">
                        <mxPoint x="240" y="485" as="sourcePoint"/>
                        <mxPoint x="260" y="535" as="targetPoint"/>
                    </mxGeometry>
                </mxCell>
                <mxCell id="13" value="" style="rounded=0;orthogonalLoop=1;jettySize=auto;html=1;endArrow=halfCircle;endFill=0;endSize=6;strokeWidth=1;sketch=0;exitX=1;exitY=0.5;exitDx=0;exitDy=0;" edge="1" parent="1" source="10">
                    <mxGeometry relative="1" as="geometry">
                        <mxPoint x="280" y="485" as="sourcePoint"/>
                        <mxPoint x="260" y="535" as="targetPoint"/>
                    </mxGeometry>
                </mxCell>
                <mxCell id="14" value="" style="ellipse;whiteSpace=wrap;html=1;align=center;aspect=fixed;resizable=0;points=[];outlineConnect=0;sketch=0;" vertex="1" parent="1">
                    <mxGeometry x="255" y="530" width="10" height="10" as="geometry"/>
                </mxCell>
                <mxCell id="15" value="" style="rounded=0;orthogonalLoop=1;jettySize=auto;html=1;endArrow=none;endFill=0;sketch=0;sourcePerimeterSpacing=0;targetPerimeterSpacing=0;exitX=0.5;exitY=1;exitDx=0;exitDy=0;" edge="1" target="17" parent="1" source="4">
                    <mxGeometry relative="1" as="geometry">
                        <mxPoint x="120" y="445" as="sourcePoint"/>
                    </mxGeometry>
                </mxCell>
                <mxCell id="16" value="" style="rounded=0;orthogonalLoop=1;jettySize=auto;html=1;endArrow=halfCircle;endFill=0;entryX=0.5;entryY=0.5;endSize=6;strokeWidth=1;sketch=0;exitX=0.5;exitY=0;exitDx=0;exitDy=0;" edge="1" target="17" parent="1" source="10">
                    <mxGeometry relative="1" as="geometry">
                        <mxPoint x="160" y="445" as="sourcePoint"/>
                    </mxGeometry>
                </mxCell>
                <mxCell id="17" value="" style="ellipse;whiteSpace=wrap;html=1;align=center;aspect=fixed;resizable=0;points=[];outlineConnect=0;sketch=0;" vertex="1" parent="1">
                    <mxGeometry x="135" y="440" width="10" height="10" as="geometry"/>
                </mxCell>
                <mxCell id="18" value="" style="rounded=0;orthogonalLoop=1;jettySize=auto;html=1;endArrow=none;endFill=0;sketch=0;sourcePerimeterSpacing=0;targetPerimeterSpacing=0;exitX=0.5;exitY=1;exitDx=0;exitDy=0;" edge="1" target="20" parent="1" source="6">
                    <mxGeometry relative="1" as="geometry">
                        <mxPoint x="360" y="455" as="sourcePoint"/>
                    </mxGeometry>
                </mxCell>
                <mxCell id="19" value="" style="rounded=0;orthogonalLoop=1;jettySize=auto;html=1;endArrow=halfCircle;endFill=0;entryX=0.5;entryY=0.5;endSize=6;strokeWidth=1;sketch=0;" edge="1" target="20" parent="1" source="8">
                    <mxGeometry relative="1" as="geometry">
                        <mxPoint x="400" y="455" as="sourcePoint"/>
                    </mxGeometry>
                </mxCell>
                <mxCell id="20" value="" style="ellipse;whiteSpace=wrap;html=1;align=center;aspect=fixed;resizable=0;points=[];outlineConnect=0;sketch=0;" vertex="1" parent="1">
                    <mxGeometry x="375" y="450" width="10" height="10" as="geometry"/>
                </mxCell>
                <mxCell id="21" value="" style="rounded=0;orthogonalLoop=1;jettySize=auto;html=1;endArrow=none;endFill=0;sketch=0;sourcePerimeterSpacing=0;targetPerimeterSpacing=0;exitX=1;exitY=0.5;exitDx=0;exitDy=0;" edge="1" parent="1" source="4">
                    <mxGeometry relative="1" as="geometry">
                        <mxPoint x="240" y="335" as="sourcePoint"/>
                        <mxPoint x="250" y="365" as="targetPoint"/>
                    </mxGeometry>
                </mxCell>
                <mxCell id="22" value="" style="rounded=0;orthogonalLoop=1;jettySize=auto;html=1;endArrow=halfCircle;endFill=0;endSize=6;strokeWidth=1;sketch=0;exitX=0;exitY=0.5;exitDx=0;exitDy=0;" edge="1" parent="1" source="6">
                    <mxGeometry relative="1" as="geometry">
                        <mxPoint x="280" y="335" as="sourcePoint"/>
                        <mxPoint x="260" y="365" as="targetPoint"/>
                    </mxGeometry>
                </mxCell>
                <mxCell id="23" value="" style="ellipse;whiteSpace=wrap;html=1;align=center;aspect=fixed;resizable=0;points=[];outlineConnect=0;sketch=0;" vertex="1" parent="1">
                    <mxGeometry x="255" y="360" width="10" height="10" as="geometry"/>
                </mxCell>
                <mxCell id="24" value="" style="rounded=0;orthogonalLoop=1;jettySize=auto;html=1;endArrow=none;endFill=0;sketch=0;sourcePerimeterSpacing=0;targetPerimeterSpacing=0;exitX=0.5;exitY=0;exitDx=0;exitDy=0;" edge="1" target="26" parent="1" source="4">
                    <mxGeometry relative="1" as="geometry">
                        <mxPoint x="140" y="295" as="sourcePoint"/>
                        <Array as="points">
                            <mxPoint x="140" y="295"/>
                        </Array>
                    </mxGeometry>
                </mxCell>
                <mxCell id="25" value="" style="rounded=0;orthogonalLoop=1;jettySize=auto;html=1;endArrow=halfCircle;endFill=0;entryX=0.5;entryY=0.5;endSize=6;strokeWidth=1;sketch=0;exitX=0.25;exitY=1;exitDx=0;exitDy=0;" edge="1" target="26" parent="1" source="2">
                    <mxGeometry relative="1" as="geometry">
                        <mxPoint x="180" y="295" as="sourcePoint"/>
                        <Array as="points">
                            <mxPoint x="215" y="295"/>
                        </Array>
                    </mxGeometry>
                </mxCell>
                <mxCell id="26" value="" style="ellipse;whiteSpace=wrap;html=1;align=center;aspect=fixed;resizable=0;points=[];outlineConnect=0;sketch=0;" vertex="1" parent="1">
                    <mxGeometry x="155" y="290" width="10" height="10" as="geometry"/>
                </mxCell>
                <mxCell id="34" value="" style="rounded=0;orthogonalLoop=1;jettySize=auto;html=1;endArrow=none;endFill=0;sketch=0;sourcePerimeterSpacing=0;targetPerimeterSpacing=0;exitX=0.75;exitY=1;exitDx=0;exitDy=0;" edge="1" target="36" parent="1" source="2">
                    <mxGeometry relative="1" as="geometry">
                        <mxPoint x="320" y="295" as="sourcePoint"/>
                        <Array as="points">
                            <mxPoint x="305" y="295"/>
                        </Array>
                    </mxGeometry>
                </mxCell>
                <mxCell id="35" value="" style="rounded=0;orthogonalLoop=1;jettySize=auto;html=1;endArrow=halfCircle;endFill=0;entryX=0.5;entryY=0.5;endSize=6;strokeWidth=1;sketch=0;exitX=0.5;exitY=0;exitDx=0;exitDy=0;" edge="1" target="36" parent="1" source="6">
                    <mxGeometry relative="1" as="geometry">
                        <mxPoint x="360" y="295" as="sourcePoint"/>
                        <Array as="points">
                            <mxPoint x="380" y="295"/>
                        </Array>
                    </mxGeometry>
                </mxCell>
                <mxCell id="36" value="" style="ellipse;whiteSpace=wrap;html=1;align=center;aspect=fixed;resizable=0;points=[];outlineConnect=0;sketch=0;" vertex="1" parent="1">
                    <mxGeometry x="335" y="290" width="10" height="10" as="geometry"/>
                </mxCell>
            </root>
        </mxGraphModel>
    </diagram>
</mxfile>